Coordinates
version=1
nRows=17
nColumns=24
inDegrees=yes

Units are S.I. units (second, meters, Newtons, ...)
Angles are in degrees.

endheader
time	pelvis_tilt	pelvis_list	pelvis_rotation	pelvis_tx	pelvis_ty	pelvis_tz	hip_flexion_r	hip_adduction_r	hip_rotation_r	knee_angle_r	ankle_angle_r	subtalar_angle_r	mtp_angle_r	hip_flexion_l	hip_adduction_l	hip_rotation_l	knee_angle_l	ankle_angle_l	subtalar_angle_l	mtp_angle_l	lumbar_extension	lumbar_bending	lumbar_rotation
      2.43500000	    -13.85559972	    -12.39971860	      1.66765448	     -2.44840917	     -0.04082739	      0.48227095	     32.90249846	     15.31718584	      5.97361407	    -21.48456297	     -6.28403143	     -6.95499669	      2.24172224	     16.49993094	    -12.54164682	      2.36916582	    -57.84100159	    -24.28339422	     -3.06727676	     21.98285010	     10.06524066	     13.00017378	     -0.99596387
      2.44000000	    -13.71654693	    -12.49472763	      1.61551812	     -2.44087363	     -0.03972573	      0.48284100	     32.08264341	     15.50930921	      5.97546164	    -21.16663326	     -5.79014581	     -6.73365505	      2.34048076	     17.43649323	    -12.74123418	      2.20179403	    -59.04407482	    -24.10940011	     -4.55145795	     20.66221109	      9.93903392	     13.10041827	     -0.81273750
      2.44500000	    -13.62376629	    -12.56901681	      1.60454735	     -2.43338445	     -0.03860627	      0.48331990	     31.29673155	     15.64328213	      5.95694921	    -20.79843311	     -5.38914027	     -6.54186782	      2.62966737	     18.45213777	    -12.89500251	      2.08701204	    -60.18028454	    -23.80606740	     -5.79975367	     19.20828676	      9.87044872	     13.17205603	     -0.66972691
      2.45000000	    -13.53000840	    -12.61052157	      1.61535482	     -2.42591795	     -0.03742536	      0.48377243	     30.49366849	     15.73432941	      5.95480018	    -20.40094036	     -5.02817357	     -6.37186324	      2.95607879	     19.46231723	    -12.99749228	      2.01580144	    -61.20215702	    -23.40216146	     -6.78460733	     17.91548764	      9.80270085	     13.19840568	     -0.54446157
      2.45500000	    -13.42511429	    -12.62344234	      1.68608376	     -2.41850899	     -0.03617856	      0.48414849	     29.67151645	     15.77252996	      5.96071231	    -19.98505118	     -4.68794111	     -6.23640389	      3.18400095	     20.46703371	    -13.03667222	      2.02299867	    -62.09018646	    -23.01312105	     -7.60568806	     17.01722921	      9.72927777	     13.18023324	     -0.51473846
      2.46000000	    -13.33633366	    -12.61007061	      1.72824357	     -2.41107084	     -0.03491373	      0.48451283	     28.85250471	     15.79360549	      5.98044383	    -19.55980460	     -4.34054921	     -6.06001973	      3.39330354	     21.45482249	    -13.04572591	      2.01345104	    -62.86143418	    -22.45935660	     -8.11010126	     16.22589068	      9.67635886	     13.14650088	     -0.36868245
      2.46500000	    -13.25338491	    -12.55339191	      1.75231299	     -2.40368064	     -0.03363409	      0.48490937	     28.03484804	     15.79044077	      6.11030227	    -19.14638034	     -4.02636609	     -5.92439467	      3.51750426	     22.40712127	    -13.00744560	      1.99524492	    -63.49625038	    -21.70786614	     -8.29964908	     15.76428260	      9.61721431	     13.06703362	     -0.27931791
      2.47000000	    -13.18669220	    -12.42107652	      1.80079070	     -2.39629519	     -0.03228197	      0.48531388	     27.21037045	     15.71280372	      6.32734094	    -18.70603073	     -3.75593945	     -5.92668140	      3.53154605	     23.34141392	    -12.86207715	      2.00318463	    -63.93959471	    -21.21361285	     -8.52674467	     15.87766400	      9.58152874	     12.89492069	     -0.17270904
      2.47500000	    -13.10112119	    -12.28294644	      1.85414486	     -2.38894002	     -0.03093459	      0.48567519	     26.37332486	     15.62444541	      6.50968241	    -18.27669889	     -3.45583110	     -5.88127283	      3.50356652	     24.23247659	    -12.69828103	      2.03310394	    -64.30870371	    -20.31338327	     -8.21356073	     15.92695969	      9.52082333	     12.72029990	     -0.06398735
      2.48000000	    -13.03126950	    -12.08960894	      1.90601898	     -2.38162427	     -0.02954715	      0.48601922	     25.54273420	     15.48263109	      6.75884888	    -17.83818106	     -3.20959402	     -5.89905192	      3.40942037	     25.09827434	    -12.46054433	      2.03895556	    -64.52344857	    -19.48487108	     -7.90213769	     16.23350848	      9.47149416	     12.48822846	      0.03946824
      2.48500000	    -12.95741778	    -11.86330264	      1.95293789	     -2.37433544	     -0.02813058	      0.48637408	     24.69969783	     15.31100662	      7.03921691	    -17.38854117	     -2.98289343	     -5.94059216	      3.27409179	     25.91944265	    -12.18165774	      2.03903148	    -64.60555889	    -18.60945675	     -7.40300873	     16.76970811	      9.41379783	     12.22069057	      0.15599371
      2.49000000	    -12.88412782	    -11.59162139	      1.99218933	     -2.36705131	     -0.02668400	      0.48674475	     23.84591786	     15.09566682	      7.34176682	    -16.92496004	     -2.77334629	     -6.00639439	      3.11709421	     26.69592284	    -11.85125985	      2.01847495	    -64.55679743	    -17.71582885	     -6.75069950	     17.45760086	      9.35462862	     11.90611671	      0.30547854
      2.49500000	    -12.80396064	    -11.29526686	      2.02303472	     -2.35980771	     -0.02522426	      0.48712835	     22.97882845	     14.85717688	      7.67763233	    -16.44995468	     -2.59165679	     -6.09109499	      2.92653276	     27.42694228	    -11.49094756	      1.98452952	    -64.39258725	    -16.79495724	     -5.98990129	     18.25835982	      9.28068037	     11.56648790	      0.45016931
      2.50000000	    -12.71918017	    -10.96808435	      2.04413864	     -2.35259464	     -0.02376033	      0.48752318	     22.10207884	     14.58748318	      8.03220726	    -15.96603323	     -2.42364272	     -6.18677530	      2.71628498	     28.11368698	    -11.09574914	      1.92902828	    -64.11672074	    -15.87541904	     -5.15352336	     19.10668011	      9.19638237	     11.19549015	      0.60954609
      2.50500000	    -12.64401258	    -10.58633835	      2.04811219	     -2.34543844	     -0.02230978	      0.48793550	     21.24925096	     14.26187138	      8.35456662	    -15.50184745	     -2.27115328	     -6.28524866	      2.52380205	     28.76669868	    -10.63879684	      1.83585807	    -63.73486770	    -14.95931680	     -4.30372860	     19.89932377	      9.10911583	     10.76799524	      0.80933613
      2.51000000	    -12.54059263	    -10.23585568	      2.04507496	     -2.33822243	     -0.02087763	      0.48836003	     20.33090218	     13.96688717	      8.76949032	    -14.97846018	     -2.11405421	     -6.37978951	      2.28966095	     29.36571941	    -10.22128394	      1.75180308	    -63.27387447	    -14.07071600	     -3.36456979	     20.72010781	      9.00657679	     10.37760284	      0.98791530
      2.51500000	    -12.45624764	     -9.83090301	      2.01503693	     -2.33107417	     -0.01949415	      0.48881154	     19.46089156	     13.61777682	      9.12308728	    -14.49697557	     -1.96589825	     -6.46794601	      2.07186796	     29.94072861	     -9.74694790	      1.62006450	    -62.71542656	    -13.19957263	     -2.48640214	     21.41827644	      8.90962158	      9.92897542	      1.21416986
